<?xml version="1.0" encoding="UTF-8"?>
<svg id="Layer_2" data-name="Layer 2" xmlns="http://www.w3.org/2000/svg" viewBox="0 0 544.8 131.81">
  <defs>
    <style>
      .cls-1 {
        fill: #ec7723;
      }

      .cls-2 {
        fill: #fff;
      }
    </style>
  </defs>
  <g id="Layer_1-2" data-name="Layer 1">
    <g>
      <g>
        <path class="cls-2" d="M126.03,1.36l-21.33,86.94h-29.72l-11.96-53.27-12.21,53.27h-29.72L0,1.36h26.14l10.11,59.44L49.94,1.36h26.51l13.32,58.94L99.89,1.36h26.14Z"/>
        <path class="cls-2" d="M180.28,88.29l-17.26-32.06h-2.59v32.06h-24.17V1.36h38.1c6.99,0,12.91,1.21,17.76,3.64,4.85,2.43,8.51,5.76,10.98,9.99,2.47,4.24,3.7,8.98,3.7,14.24,0,5.92-1.62,11.12-4.87,15.6-3.25,4.48-8,7.67-14.24,9.56l19.61,33.91h-27.01ZM160.43,39.71h11.96c3.29,0,5.75-.78,7.4-2.34,1.64-1.56,2.47-3.82,2.47-6.78,0-2.79-.84-4.99-2.53-6.6-1.69-1.6-4.13-2.4-7.34-2.4h-11.96v18.13Z"/>
        <path class="cls-2" d="M272.77,74.11h-30.83l-4.69,14.18h-25.4L243.54,1.36h27.87l31.57,86.94h-25.53l-4.69-14.18ZM266.73,55.62l-9.37-28.12-9.25,28.12h18.62Z"/>
        <path class="cls-2" d="M375.92,44.7c-2.43,4.32-6.08,7.77-10.97,10.36-4.89,2.59-10.87,3.88-17.94,3.88h-11.96v29.35h-24.17V1.36h36.13c6.99,0,12.93,1.23,17.82,3.7,4.89,2.47,8.57,5.88,11.04,10.23,2.47,4.36,3.7,9.37,3.7,15.04,0,5.26-1.21,10.05-3.64,14.37ZM354.9,30.34c0-6.33-3.41-9.5-10.24-9.5h-9.62v18.87h9.62c6.82,0,10.24-3.12,10.24-9.37Z"/>
        <path class="cls-1" d="M397.19,81.94c-6.5-4.81-9.99-11.69-10.48-20.66h25.77c.25,3.04,1.15,5.26,2.71,6.66,1.56,1.4,3.58,2.1,6.04,2.1,2.22,0,4.05-.56,5.49-1.66,1.44-1.11,2.16-2.65,2.16-4.62,0-2.55-1.19-4.52-3.58-5.92-2.39-1.4-6.25-2.96-11.59-4.69-5.67-1.89-10.26-3.72-13.75-5.49-3.5-1.77-6.54-4.36-9.13-7.77-2.59-3.41-3.88-7.87-3.88-13.38s1.4-10.38,4.19-14.37c2.79-3.99,6.66-7.01,11.59-9.06,4.93-2.05,10.52-3.08,16.77-3.08,10.11,0,18.19,2.36,24.23,7.09,6.04,4.73,9.27,11.37,9.68,19.92h-26.27c-.08-2.63-.88-4.6-2.4-5.92-1.52-1.31-3.47-1.97-5.86-1.97-1.81,0-3.29.54-4.44,1.6-1.15,1.07-1.73,2.59-1.73,4.56,0,1.65.64,3.06,1.91,4.25,1.27,1.19,2.86,2.22,4.75,3.08,1.89.86,4.69,1.95,8.39,3.27,5.51,1.89,10.05,3.76,13.63,5.61,3.58,1.85,6.66,4.44,9.25,7.77,2.59,3.33,3.88,7.54,3.88,12.64s-1.29,9.83-3.88,13.93c-2.59,4.11-6.33,7.36-11.22,9.74-4.89,2.39-10.67,3.58-17.33,3.58-10.11,0-18.42-2.4-24.91-7.21Z"/>
        <path class="cls-1" d="M544.8,1.36l-30.58,59.31v27.62h-24.29v-27.62L459.34,1.36h27.62l15.29,33.54,15.29-33.54h27.25Z"/>
      </g>
      <g>
        <path class="cls-2" d="M124.27,119.74c-.51.96-1.32,1.74-2.45,2.34-1.12.6-2.56.9-4.31.9h-3.85v8.62h-3.48v-21.25h7.34c1.63,0,3.01.28,4.14.84,1.13.56,1.98,1.32,2.54,2.28.56.96.84,2.03.84,3.21,0,1.08-.25,2.1-.76,3.06ZM120.48,119.23c.65-.6.98-1.45.98-2.55,0-2.32-1.31-3.48-3.94-3.48h-3.85v6.94h3.85c1.32,0,2.31-.3,2.97-.9Z"/>
        <path class="cls-2" d="M141.17,127.26h-8.9l-1.53,4.34h-3.64l7.61-21.28h4.03l7.61,21.28h-3.67l-1.53-4.34ZM140.19,124.41l-3.45-9.87-3.48,9.87h6.94Z"/>
        <path class="cls-2" d="M149.96,115.33c.97-1.65,2.28-2.94,3.94-3.87,1.66-.93,3.48-1.39,5.46-1.39,2.26,0,4.27.56,6.04,1.67s3.04,2.69,3.84,4.72h-4.19c-.55-1.12-1.31-1.96-2.29-2.51-.98-.55-2.11-.83-3.39-.83-1.41,0-2.66.32-3.76.95-1.1.63-1.96,1.54-2.58,2.72-.62,1.18-.93,2.56-.93,4.13s.31,2.94.93,4.13c.62,1.18,1.48,2.09,2.58,2.74,1.1.64,2.35.96,3.76.96,1.28,0,2.42-.28,3.39-.83.98-.55,1.74-1.39,2.29-2.51h4.19c-.79,2.04-2.07,3.61-3.84,4.71s-3.78,1.65-6.04,1.65c-2,0-3.82-.46-5.47-1.39-1.65-.93-2.96-2.22-3.93-3.87-.97-1.65-1.45-3.52-1.45-5.59s.48-3.94,1.45-5.59Z"/>
        <path class="cls-2" d="M185.01,131.6l-8.22-9.51v9.51h-3.48v-21.25h3.48v9.69l8.25-9.69h4.37l-9.23,10.64,9.38,10.61h-4.55Z"/>
        <path class="cls-2" d="M196.13,113.16v6.24h7.34v2.84h-7.34v6.51h8.25v2.84h-11.74v-21.28h11.74v2.84h-8.25Z"/>
        <path class="cls-2" d="M221.55,111.65c1.7.87,3.02,2.11,3.94,3.73s1.39,3.51,1.39,5.67-.46,4.03-1.39,5.62-2.24,2.81-3.94,3.65c-1.7.85-3.68,1.27-5.95,1.27h-6.94v-21.25h6.94c2.26,0,4.24.43,5.95,1.3ZM221.32,126.74c1.32-1.34,1.99-3.24,1.99-5.69s-.66-4.39-1.99-5.78c-1.32-1.39-3.23-2.08-5.72-2.08h-3.45v15.56h3.45c2.49,0,4.39-.67,5.72-2.02Z"/>
        <path class="cls-2" d="M265.95,110.35l-6.3,21.25h-3.94l-4.46-16.08-4.74,16.08-3.91.03-6.02-21.28h3.7l4.4,17.3,4.77-17.3h3.91l4.43,17.21,4.43-17.21h3.73Z"/>
        <path class="cls-2" d="M272.31,110.35v21.25h-3.48v-21.25h3.48Z"/>
        <path class="cls-2" d="M290.62,110.35v2.84h-5.66v18.4h-3.48v-18.4h-5.69v-2.84h14.83Z"/>
        <path class="cls-2" d="M311.1,110.35v21.25h-3.48v-9.29h-10v9.29h-3.48v-21.25h3.48v9.11h10v-9.11h3.48Z"/>
        <path class="cls-2" d="M336.13,110.35v2.84h-9.02v6.27h7.03v2.84h-7.03v9.29h-3.48v-21.25h12.5Z"/>
        <path class="cls-2" d="M342.86,128.78h7.18v2.81h-10.67v-21.25h3.48v18.43Z"/>
        <path class="cls-2" d="M365.76,127.26h-8.9l-1.53,4.34h-3.64l7.61-21.28h4.03l7.61,21.28h-3.67l-1.53-4.34ZM364.78,124.41l-3.45-9.87-3.48,9.87h6.94Z"/>
        <path class="cls-2" d="M392.56,110.35l-7.98,21.25h-4.03l-8.01-21.25h3.73l6.3,17.67,6.33-17.67h3.67Z"/>
        <path class="cls-2" d="M399.7,130.42c-1.66-.93-2.98-2.22-3.94-3.88-.97-1.66-1.45-3.53-1.45-5.61s.48-3.94,1.45-5.59c.97-1.65,2.28-2.94,3.94-3.87,1.66-.93,3.48-1.39,5.46-1.39s3.83.46,5.49,1.39c1.66.93,2.97,2.22,3.93,3.87.96,1.65,1.44,3.52,1.44,5.59s-.48,3.95-1.44,5.61c-.96,1.66-2.27,2.96-3.93,3.88-1.66.93-3.49,1.39-5.49,1.39s-3.8-.46-5.46-1.39ZM408.92,127.82c1.1-.64,1.96-1.56,2.58-2.75.62-1.19.93-2.57.93-4.14s-.31-2.94-.93-4.13c-.62-1.18-1.48-2.09-2.58-2.72-1.1-.63-2.35-.95-3.76-.95s-2.66.32-3.76.95c-1.1.63-1.96,1.54-2.58,2.72-.62,1.18-.93,2.56-.93,4.13s.31,2.95.93,4.14c.62,1.19,1.48,2.11,2.58,2.75,1.1.64,2.35.96,3.76.96s2.66-.32,3.76-.96Z"/>
        <path class="cls-2" d="M430.47,131.6l-4.89-8.5h-2.66v8.5h-3.48v-21.25h7.34c1.63,0,3.01.29,4.14.86,1.13.57,1.98,1.34,2.54,2.29.56.96.84,2.03.84,3.21,0,1.39-.4,2.64-1.21,3.78-.81,1.13-2.04,1.9-3.71,2.31l5.26,8.8h-4.16ZM422.92,120.32h3.85c1.3,0,2.29-.33,2.95-.98.66-.65.99-1.53.99-2.63s-.33-1.96-.98-2.58c-.65-.62-1.64-.93-2.97-.93h-3.85v7.12Z"/>
      </g>
      <rect class="cls-1" x="10.32" y="119.33" width="83.69" height="3.23"/>
      <rect class="cls-1" x="450.79" y="119.33" width="83.69" height="3.23"/>
    </g>
  </g>
</svg>